<?xml version="1.0" standalone="no"?>
<!DOCTYPE svg PUBLIC "-//W3C//DTD SVG 20010904//EN"
 "http://www.w3.org/TR/2001/REC-SVG-20010904/DTD/svg10.dtd">
<svg version="1.0" xmlns="http://www.w3.org/2000/svg"
 width="426.000000pt" height="362.000000pt" viewBox="0 0 426.000000 362.000000"
 preserveAspectRatio="xMidYMid meet">

<g transform="translate(0.000000,362.000000) scale(0.100000,-0.100000)"
fill="#fff" stroke="none">
<path d="M941 3405 c-127 -28 -268 -88 -367 -155 -219 -151 -397 -446 -449
-744 -43 -249 -23 -542 54 -776 31 -94 114 -255 166 -325 268 -358 696 -528
1193 -474 440 47 747 268 864 619 30 90 32 103 32 255 1 143 -1 167 -22 225
-96 268 -362 428 -675 407 -162 -11 -293 -56 -487 -167 -160 -92 -288 -120
-373 -82 -101 45 -124 164 -50 253 l26 30 -44 45 -43 44 -22 -21 c-12 -11 -37
-48 -56 -82 -31 -58 -33 -68 -33 -157 0 -87 3 -101 33 -162 94 -191 330 -260
626 -183 31 8 107 38 169 66 319 146 347 154 478 147 143 -8 248 -78 307 -206
23 -50 26 -69 26 -157 0 -80 -5 -112 -24 -160 -45 -117 -117 -195 -238 -258
-142 -73 -287 -105 -522 -114 -799 -30 -1260 327 -1262 977 -1 146 10 220 49
345 92 294 285 501 523 561 79 20 264 15 353 -10 32 -9 133 -47 225 -85 92
-38 196 -78 232 -89 330 -100 591 -5 799 292 22 33 41 64 41 70 -1 6 -21 26
-45 43 l-44 33 -35 -49 c-142 -194 -305 -218 -614 -92 -304 125 -410 151 -602
150 -69 0 -154 -7 -189 -14z"/>
<path d="M3478 1541 c-78 -25 -130 -57 -227 -141 -45 -39 -85 -70 -87 -67 -2
2 0 51 5 108 5 57 7 105 6 107 -2 2 -97 0 -211 -5 l-209 -8 0 -44 c0 -44 0
-44 47 -56 61 -15 96 -39 105 -73 5 -15 8 -232 8 -483 0 -520 7 -482 -89 -518
-49 -18 -51 -20 -54 -60 l-3 -41 281 0 281 0 -3 41 c-3 40 -5 42 -54 60 -94
35 -89 11 -92 426 l-3 365 25 42 c36 62 102 124 168 157 47 24 70 29 126 29
126 0 185 -54 214 -195 8 -40 12 -172 13 -400 0 -393 1 -389 -82 -419 -26 -10
-54 -19 -60 -22 -8 -2 -13 -20 -13 -44 l0 -40 286 0 285 0 -3 42 c-3 40 -4 41
-53 55 -27 8 -61 26 -75 39 l-25 24 -5 423 c-6 399 -7 426 -28 487 -27 82 -61
131 -115 169 -86 59 -246 78 -359 42z"/>
</g>
</svg>
