<?xml version="1.0" standalone="no"?>
<!DOCTYPE svg PUBLIC "-//W3C//DTD SVG 20010904//EN"
 "http://www.w3.org/TR/2001/REC-SVG-20010904/DTD/svg10.dtd">
<svg version="1.0" xmlns="http://www.w3.org/2000/svg"
 width="380.000000pt" height="247.000000pt" viewBox="0 0 380.000000 247.000000"
 preserveAspectRatio="xMidYMid meet">

<g transform="translate(0.000000,247.000000) scale(0.100000,-0.100000)"
fill="#000000" stroke="none">
<path d="M843 2435 c-29 -8 -75 -26 -102 -39 -50 -26 -177 -123 -220 -170
l-25 -26 44 -45 c24 -25 48 -45 52 -45 4 0 26 18 47 39 83 83 174 114 235 81
41 -22 82 -118 110 -260 25 -128 60 -380 72 -527 l7 -82 -335 -418 c-333 -416
-463 -573 -589 -714 -37 -41 -69 -84 -73 -96 -3 -13 -9 -32 -12 -43 -5 -19 -1
-20 179 -20 l185 0 53 87 c74 125 163 256 403 598 l211 300 6 -40 c3 -22 9
-134 13 -248 14 -461 56 -635 169 -693 15 -8 56 -17 91 -21 121 -11 264 53
399 178 l72 67 -45 46 c-24 25 -47 46 -50 46 -3 0 -28 -21 -56 -46 -103 -98
-195 -115 -253 -48 -68 77 -121 360 -157 841 l-6 92 233 293 c325 410 479 597
585 713 50 56 94 111 98 123 19 69 38 62 -166 62 l-183 -1 -295 -443 c-162
-244 -296 -443 -297 -442 -1 1 -7 96 -13 211 -18 356 -37 489 -86 586 -53 106
-158 142 -301 104z"/>
<path d="M3285 1683 c-14 -3 -120 -167 -355 -546 -531 -861 -558 -903 -610
-960 -27 -29 -68 -62 -92 -72 -51 -23 -58 -31 -58 -67 l0 -28 275 0 c212 0
277 3 279 13 15 48 16 67 1 67 -36 0 -97 34 -111 63 -30 56 4 164 97 312 l54
85 282 0 c155 0 284 -4 287 -9 13 -21 18 -297 6 -340 -15 -55 -56 -97 -102
-106 -30 -6 -37 -12 -42 -37 -3 -17 -6 -34 -6 -39 0 -11 547 -12 553 -1 3 4 8
21 11 38 6 29 5 31 -33 43 -51 15 -97 70 -110 132 -8 35 -131 1405 -131 1453
0 6 -162 6 -195 -1z m9 -465 c3 -101 11 -261 18 -356 6 -94 9 -174 6 -177 -3
-3 -111 -4 -242 -3 l-236 3 111 185 c223 372 321 530 328 530 5 0 11 -82 15
-182z"/>
</g>
</svg>
