<?xml version="1.0" standalone="no"?>
<!DOCTYPE svg PUBLIC "-//W3C//DTD SVG 20010904//EN"
 "http://www.w3.org/TR/2001/REC-SVG-20010904/DTD/svg10.dtd">
<svg version="1.0" xmlns="http://www.w3.org/2000/svg"
 width="372.000000pt" height="326.000000pt" viewBox="0 0 372.000000 326.000000"
 preserveAspectRatio="xMidYMid meet">

<g transform="translate(0.000000,326.000000) scale(0.100000,-0.100000)"
fill="#000000" stroke="none">
<path d="M40 3157 l0 -43 57 -18 c67 -22 115 -65 134 -121 10 -32 14 -228 17
-920 3 -882 -1 -1013 -32 -1073 -16 -30 -91 -76 -143 -87 -31 -6 -33 -9 -33
-51 l0 -44 370 0 370 0 0 43 c0 43 -1 44 -42 56 -64 19 -117 58 -136 99 -15
34 -17 128 -20 1040 l-3 1002 466 0 465 0 0 -942 c0 -529 -5 -975 -10 -1015
-13 -104 -29 -129 -103 -164 -34 -16 -70 -29 -79 -29 -15 0 -18 -9 -18 -45 l0
-45 370 0 370 0 0 43 c0 42 0 42 -52 61 -76 27 -104 50 -125 104 -17 44 -18
101 -18 992 0 740 3 954 13 987 15 50 54 83 130 109 52 19 52 19 52 61 l0 43
-1000 0 -1000 0 0 -43z"/>
<path d="M3211 1741 c-19 -5 -95 -121 -343 -521 -552 -894 -582 -941 -634
-995 -33 -35 -65 -57 -92 -66 -26 -7 -42 -18 -42 -28 0 -9 -3 -26 -6 -38 l-6
-23 280 0 280 0 6 31 c9 46 9 46 -29 53 -19 4 -49 19 -66 33 -30 25 -31 29
-27 87 4 69 40 155 112 266 l46 70 283 0 284 0 7 -52 c3 -29 6 -106 6 -170 0
-166 -22 -214 -107 -232 -21 -5 -34 -15 -38 -29 -18 -63 -44 -57 263 -57 l280
0 7 37 c4 22 3 39 -3 41 -51 17 -99 52 -114 83 -28 57 -33 101 -93 804 -31
369 -58 680 -61 693 -4 21 -9 22 -87 21 -45 -1 -93 -4 -106 -8z m9 -440 c0
-148 13 -402 25 -513 l6 -48 -245 0 -246 0 217 360 c120 198 223 360 230 360
10 0 13 -36 13 -159z"/>
</g>
</svg>
